HIERARCHY
ROOT root
{
	OFFSET	0	13.1	24.9
	CHANNELS 6  Xposition Yposition Zposition Xrotation Yrotation Zrotation
	JOINT spine_1
	{
		OFFSET	0	9.99999	0
		CHANNELS 3  Xrotation Yrotation Zrotation
		JOINT spine_2
		{
			OFFSET	0	112	-10
			CHANNELS 3  Xrotation Yrotation Zrotation
			JOINT spine_3
			{
				OFFSET	0	206.5	19.3
				CHANNELS 3  Xrotation Yrotation Zrotation
				JOINT spine_4
				{
					OFFSET	0	110.4	14.6
					CHANNELS 3  Xrotation Yrotation Zrotation
					JOINT neck_1
					{
						OFFSET	0	71.8	-50.3
						CHANNELS 3  Xrotation Yrotation Zrotation
						JOINT neck_2
						{
							OFFSET	0	86.2	-25.8
							CHANNELS 3  Xrotation Yrotation Zrotation
							JOINT head_ee
							{
								OFFSET	0	179.8	-8.7
								CHANNELS 3  Xrotation Yrotation Zrotation
								End Site
								{
									OFFSET	1	0	0
								}
							}
						}
					}
					JOINT left_clavicle
					{
						OFFSET	-43.2	22.4	-70.8
						CHANNELS 3  Xrotation Yrotation Zrotation
						JOINT left_shoulder
						{
							OFFSET	-93.9	-5.79999	48.7
							CHANNELS 3  Xrotation Yrotation Zrotation
							JOINT left_elbow
							{
								OFFSET	-291.4	-30.8	15.2
								CHANNELS 3  Xrotation Yrotation Zrotation
								JOINT left_lowarm_twist
								{
									OFFSET	-110.7	-3.89999	13.6
									CHANNELS 3  Xrotation Yrotation Zrotation
									JOINT left_hand
									{
										OFFSET	-110.7	-3.89999	13.6
										CHANNELS 3  Xrotation Yrotation Zrotation
										JOINT left_ee
										{
											OFFSET	-80.8	-5.10001	12.1
											CHANNELS 3  Xrotation Yrotation Zrotation
											End Site
											{
												OFFSET	1	0	0
											}
										}
									}
								}
							}
						}
					}
					JOINT right_clavicle
					{
						OFFSET	43.2	22.4	-70.8
						CHANNELS 3  Xrotation Yrotation Zrotation
						JOINT right_shoulder
						{
							OFFSET	93.9	-5.79999	48.7
							CHANNELS 3  Xrotation Yrotation Zrotation
							JOINT right_elbow
							{
								OFFSET	291.4	-30.8	15.2
								CHANNELS 3  Xrotation Yrotation Zrotation
								JOINT right_lowarm_twist
								{
									OFFSET	110.7	-3.89999	13.6
									CHANNELS 3  Xrotation Yrotation Zrotation
									JOINT right_hand
									{
										OFFSET	110.7	-3.89999	13.6
										CHANNELS 3  Xrotation Yrotation Zrotation
										JOINT right_ee
										{
											OFFSET	80.8	-5.10001	12.1
											CHANNELS 3  Xrotation Yrotation Zrotation
											End Site
											{
												OFFSET	1	0	0
											}
										}
									}
								}
							}
						}
					}
				}
			}
		}
	}
	JOINT left_hip
	{
		OFFSET	-82.8	-127.5	0.300001
		CHANNELS 3  Xrotation Yrotation Zrotation
		JOINT left_knee
		{
			OFFSET	-28.2	-396.7	2.2
			CHANNELS 3  Xrotation Yrotation Zrotation
			JOINT left_ankle
			{
				OFFSET	-11.7	-411.3	35.4
				CHANNELS 3  Xrotation Yrotation Zrotation
				JOINT left_toes
				{
					OFFSET	0	-60	-88.6
					CHANNELS 3  Xrotation Yrotation Zrotation
					JOINT left_foot_ee
					{
						OFFSET	-22.5	-16.5	-42.2
						CHANNELS 3  Xrotation Yrotation Zrotation
						End Site
						{
							OFFSET	1	0	0
						}
					}
				}
			}
		}
	}
	JOINT right_hip
	{
		OFFSET	82.8	-127.5	0.300001
		CHANNELS 3  Xrotation Yrotation Zrotation
		JOINT right_knee
		{
			OFFSET	28.2	-396.7	2.2
			CHANNELS 3  Xrotation Yrotation Zrotation
			JOINT right_ankle
			{
				OFFSET	11.7	-411.3	35.4
				CHANNELS 3  Xrotation Yrotation Zrotation
				JOINT right_toes
				{
					OFFSET	0	-60	-88.6
					CHANNELS 3  Xrotation Yrotation Zrotation
					JOINT right_foot_ee
					{
						OFFSET	22.5	-16.5	-42.2
						CHANNELS 3  Xrotation Yrotation Zrotation
						End Site
						{
							OFFSET	1	0	0
						}
					}
				}
			}
		}
	}
}
MOTION
Frames: 5
Frame Time: 0.02
2557.70820579 748.645 -1534.97820067 23.546941325 69.7932207372 -19.6882029807 -2.46971 0.116841 -1.78457 -2.46796 0.230143 -1.77352 -2.47362 0.670164 -1.65811 -2.47724 0.399929 -1.74311 1.43386 6.13625 3.60924 1.4988 7.80812 4.48712 -0.0 0.0 -0.0 0.848496 15.1356 3.13609 -11.5076 -28.3948 78.4634 0.197613 -5.59109 0.00964949 -30.2072 -1.9749 3.2724 -0.576361 10.6457 0.722813 -0.0 0.0 -0.0 -1.66451 7.46991 4.29956 18.4584 14.9714 -77.564 2.43174 50.2948 -1.1417 24.4542 -0.204219 3.09352 -0.228305 -26.1672 -9.05571 0.0 0.0 0.0 7.7551 20.1502 -14.1447 -38.1335 -0.352309 5.7352 39.2381 13.6203 -4.84479 -32.9709 0.0 0.0 -0.0 0.0 -0.0 11.9723 26.2717 -11.5513 -14.5441 -0.320722 -2.20294 20.7929 8.86485 2.94082 -38.8028 0.0 0.0 0.0 0.0 0.0 
2556.05879521 748.645 -1528.00416897 25.4690026634 71.2830899972 -21.7265428485 -2.46971 0.116841 -1.78457 -2.46796 0.230143 -1.77352 -2.47362 0.670164 -1.65811 -2.47724 0.399929 -1.74311 1.43386 6.13625 3.60924 1.4988 7.80812 4.48712 -0.0 0.0 -0.0 0.848496 15.1356 3.13609 -11.5076 -28.3948 78.4634 0.197613 -5.59109 0.00964949 -30.2072 -1.9749 3.2724 -0.576361 10.6457 0.722813 -0.0 0.0 -0.0 -1.66451 7.46991 4.29956 18.4584 14.9714 -77.564 2.43174 50.2948 -1.1417 24.4542 -0.204219 3.09352 -0.228305 -26.1672 -9.05571 0.0 0.0 0.0 7.7551 20.1502 -14.1447 -38.1335 -0.352309 5.7352 39.2381 13.6203 -4.84479 -32.9709 0.0 0.0 -0.0 0.0 -0.0 11.9723 26.2717 -11.5513 -14.5441 -0.320722 -2.20294 20.7929 8.86485 2.94082 -38.8028 0.0 0.0 0.0 0.0 0.0 
2547.42240248 748.5 -1522.40705305 25.4892838395 71.0507941316 -21.9600229227 -2.49198 0.177766 -1.64121 -2.49052 0.281826 -1.62658 -2.4974 0.683715 -1.5026 -2.50029 0.43786 -1.59169 1.41496 6.59255 3.39916 1.48851 8.79272 4.29724 -0.0 0.0 -0.0 0.646111 17.1719 3.01097 -12.8895 -28.4959 77.9794 0.201723 -5.70664 0.0100541 -30.4838 -2.00056 3.29689 -0.341055 11.1344 2.42735 -0.0 0.0 -0.0 -1.71176 7.15898 4.35289 17.4418 17.1003 -76.9749 3.10847 56.9875 -1.68761 24.6634 -0.200245 3.11993 -0.0310982 -21.9366 -8.61701 0.0 0.0 0.0 10.7054 21.7384 -15.7677 -38.1211 -0.351579 5.73344 38.3732 13.2072 -4.7606 -33.1426 0.0 0.0 -0.0 0.0 -0.0 10.2332 26.8096 -11.0056 -12.478 -0.309419 -1.88616 22.2003 7.64706 3.09896 -39.3926 0.0 0.0 0.0 0.0 0.0 
2533.29951537 746.87 -1523.61908882 27.5963196515 72.1951092427 -23.5813211349 -2.45185 -0.257155 -1.3977 -2.45078 -0.167704 -1.41123 -2.44531 0.192919 -1.408 -2.44808 -0.0318468 -1.4208 0.620905 7.01968 3.33099 0.701024 9.70805 4.29178 -0.0 0.0 -0.0 0.136961 18.9741 2.42173 -14.3942 -27.4278 77.5391 0.208316 -5.89184 0.0107202 -30.5532 -2.00701 3.30301 0.0460184 12.1842 5.31469 -0.0 0.0 -0.0 -1.28872 6.32105 3.37089 17.5685 19.5412 -76.6586 3.70263 61.3845 -2.19828 24.6479 -0.200543 3.11797 0.226893 -18.2637 -8.79428 0.0 0.0 0.0 16.2367 26.9723 -19.1728 -29.7593 0.0532109 4.51563 34.0586 15.9677 -4.37595 -33.6767 0.0 0.0 -0.0 0.0 -0.0 7.54577 26.3449 -10.9757 -9.60034 -0.274662 -1.44603 22.7877 5.54194 3.14335 -39.7821 0.0 0.0 0.0 0.0 0.0 
2456.04659467 752.049 -1526.97133888 14.8047319197 65.7113124448 -8.82702173194 -1.36626 0.0357307 -1.67888 -1.36471 0.142474 -1.6732 -1.36782 0.529309 -1.59368 -1.37126 0.271011 -1.65725 2.44547 9.52258 3.94685 2.61183 13.3405 5.08202 -0.0 0.0 -0.0 -2.46732 23.6134 -0.635974 -12.9568 -27.6516 78.8612 0.599718 -16.5459 0.0872012 -32.1062 -2.15341 3.43804 1.37598 24.4822 17.8293 -0.0 0.0 -0.0 -0.0513518 11.2171 1.43545 2.05144 20.1915 -71.8414 3.0873 56.8085 -1.66988 21.9704 -0.244034 2.77876 0.59176 -3.2453 -5.2814 0.0 0.0 0.0 2.54061 28.9246 -12.2314 -9.51499 0.273294 1.433 40.0078 22.922 -5.10511 -36.0341 0.0 0.0 -0.0 0.0 -0.0 -1.85981 21.9512 -8.92548 4.28848 0.200205 0.627371 33.9743 -13.6349 4.33911 -36.2603 0.0 0.0 0.0 0.0 0.0 
